<svg id="Layer_1" data-name="Layer 1" xmlns="http://www.w3.org/2000/svg" viewBox="0 0 512.62 689.12"><defs><style>.cls-1,.cls-16,.cls-25,.cls-3,.cls-31,.cls-36,.cls-42,.cls-44{font-size:11px;}.cls-1,.cls-16,.cls-25,.cls-3,.cls-31,.cls-36,.cls-42,.cls-44,.cls-50,.cls-62{fill:#fff;}.cls-1{font-family:Gotham-Medium, Gotham Medium;}.cls-2{letter-spacing:-0.03em;}.cls-25,.cls-3,.cls-31,.cls-36,.cls-42,.cls-44,.cls-50,.cls-62{font-family:Gotham-Book, Gotham Book;}.cls-4{letter-spacing:-0.02em;}.cls-5{letter-spacing:-0.01em;}.cls-6{letter-spacing:-0.03em;}.cls-7{letter-spacing:-0.02em;}.cls-8{letter-spacing:0em;}.cls-9{letter-spacing:0em;}.cls-10{letter-spacing:0em;}.cls-11{letter-spacing:-0.01em;}.cls-12{letter-spacing:-0.02em;}.cls-13{letter-spacing:-0.01em;}.cls-14{letter-spacing:-0.01em;}.cls-15{letter-spacing:0em;}.cls-16{font-family:AvenirLTStd-Light, AvenirLTStd Light;}.cls-17{letter-spacing:-0.02em;}.cls-18{letter-spacing:-0.02em;}.cls-19{letter-spacing:-0.03em;}.cls-20{letter-spacing:-0.02em;}.cls-21{letter-spacing:-0.03em;}.cls-22{letter-spacing:0.01em;}.cls-23{letter-spacing:-0.01em;}.cls-24{letter-spacing:-0.01em;}.cls-25{letter-spacing:0em;}.cls-26{letter-spacing:0em;}.cls-27{letter-spacing:-0.02em;}.cls-28,.cls-42{letter-spacing:-0.02em;}.cls-29{letter-spacing:-0.08em;}.cls-30{letter-spacing:0em;}.cls-31,.cls-33{letter-spacing:-0.02em;}.cls-32{letter-spacing:-0.05em;}.cls-34{letter-spacing:-0.02em;}.cls-35{letter-spacing:-0.03em;}.cls-36{letter-spacing:-0.02em;}.cls-37{letter-spacing:-0.01em;}.cls-38{letter-spacing:-0.1em;}.cls-39{letter-spacing:-0.1em;}.cls-40{letter-spacing:-0.01em;}.cls-41{letter-spacing:-0.04em;}.cls-43{letter-spacing:-0.04em;}.cls-44{letter-spacing:-0.01em;}.cls-45{letter-spacing:-0.02em;}.cls-46{letter-spacing:-0.03em;}.cls-47{letter-spacing:-0.03em;}.cls-48{letter-spacing:-0.01em;}.cls-49{letter-spacing:-0.01em;}.cls-50,.cls-62{font-size:6px;}.cls-51{letter-spacing:1.31em;}.cls-52{letter-spacing:-0.01em;}.cls-53{letter-spacing:-0.13em;}.cls-54{letter-spacing:-0.02em;}.cls-55{letter-spacing:0em;}.cls-56{letter-spacing:0em;}.cls-57{letter-spacing:-0.13em;}.cls-58{letter-spacing:-0.01em;}.cls-59{letter-spacing:-0.01em;}.cls-60{letter-spacing:-0.01em;}.cls-61{letter-spacing:0em;}.cls-62{letter-spacing:-0.02em;}.cls-63{letter-spacing:0em;}.cls-64{letter-spacing:-0.01em;}.cls-65{letter-spacing:0.02em;}.cls-66{letter-spacing:-0.02em;}</style></defs><title>BeanComparisonChart</title><text class="cls-1" transform="translate(0.18 37.79)">S<tspan class="cls-2" x="5.42" y="0">o</tspan><tspan x="11.13" y="0">ybeans</tspan></text><text class="cls-3" transform="translate(0.18 49.79)">g<tspan class="cls-4" x="6.15" y="0">r</tspan><tspan x="9.5" y="0">een (</tspan><tspan class="cls-5" x="32.09" y="0">E</tspan><tspan x="37.39" y="0">damam</tspan><tspan class="cls-6" x="72.54" y="0">e</tspan><tspan x="77.73" y="0">)</tspan></text><text class="cls-1" transform="translate(0.18 409.99)">G<tspan class="cls-7" x="7.11" y="0">r</tspan><tspan x="10.5" y="0">eat</tspan><tspan class="cls-8" x="24.96" y="0"> </tspan><tspan class="cls-9" x="27.28" y="0">northern</tspan><tspan class="cls-10" x="67.98" y="0"> </tspan><tspan x="70.3" y="0">beans</tspan></text><text class="cls-1" transform="translate(0.18 229.69)">Black beans</text><text class="cls-1" transform="translate(0.18 593.94)">Whi<tspan class="cls-11" x="17.98" y="0">t</tspan><tspan x="21.47" y="0">e beans</tspan></text><text class="cls-1" transform="translate(0.18 123.76)">S<tspan class="cls-2" x="5.42" y="0">o</tspan><tspan x="11.13" y="0">ybeans</tspan></text><text class="cls-3" transform="translate(0.18 135.76)">matu<tspan class="cls-12" x="24.18" y="0">r</tspan><tspan class="cls-13" x="27.54" y="0">e</tspan><tspan x="32.94" y="0">, dry </tspan><tspan class="cls-4" x="54.87" y="0">r</tspan><tspan x="58.22" y="0">oa</tspan><tspan class="cls-14" x="69.56" y="0">s</tspan><tspan class="cls-11" x="73.82" y="0">t</tspan><tspan class="cls-15" x="77.31" y="0">ed</tspan></text><text class="cls-16" transform="translate(0.18 147.76)">¼</text><text class="cls-3" transform="translate(8.74 147.76)"><tspan xml:space="preserve"> cup</tspan></text><text class="cls-1" transform="translate(0.18 500.61)">N<tspan class="cls-17" x="7.24" y="0">a</tspan><tspan class="cls-11" x="12.33" y="0">v</tspan><tspan class="cls-9" x="17.47" y="0">y beans</tspan></text><text class="cls-1" transform="translate(0.18 317.61)"><tspan class="cls-18">A</tspan><tspan x="6.47" y="0">dzuki beans</tspan></text><text class="cls-1" transform="translate(0.18 682.87)">Mung beans</text><text class="cls-1" transform="translate(0.18 83.61)">S<tspan class="cls-2" x="5.42" y="0">o</tspan><tspan x="11.13" y="0">ybeans</tspan></text><text class="cls-3" transform="translate(0.18 95.61)">matu<tspan class="cls-12" x="24.18" y="0">r</tspan><tspan class="cls-13" x="27.54" y="0">e</tspan><tspan x="32.94" y="0">, </tspan><tspan class="cls-19" x="37.55" y="0">y</tspan><tspan x="42.42" y="0">ell</tspan><tspan class="cls-18" x="53.12" y="0">o</tspan><tspan x="58.89" y="0">w</tspan></text><text class="cls-1" transform="translate(0 454.69)"><tspan class="cls-14">R</tspan><tspan class="cls-15" x="5.82" y="0">ed kidn</tspan><tspan class="cls-20" x="39.91" y="0">e</tspan><tspan x="45.15" y="0">y beans</tspan></text><text class="cls-1" transform="translate(0.18 261.23)">Ba<tspan class="cls-18" x="11.26" y="0">k</tspan><tspan class="cls-15" x="16.16" y="0">ed beans</tspan></text><text class="cls-3" transform="translate(0.18 273.23)">canned, plain </text><text class="cls-3" transform="translate(0.18 285.23)">or <tspan class="cls-21" x="11.97" y="0">v</tspan><tspan class="cls-15" x="16.94" y="0">egetarian</tspan></text><text class="cls-1" transform="translate(0.18 638.15)">Lima beans</text><text class="cls-1" transform="translate(0.18 181.23)"><tspan class="cls-22">G</tspan><tspan class="cls-15" x="7.22" y="0">arban</tspan><tspan class="cls-11" x="33.78" y="0">z</tspan><tspan x="38.33" y="0">o beans</tspan></text><text class="cls-1" transform="translate(0.18 547.48)">Pin<tspan class="cls-11" x="14.53" y="0">t</tspan><tspan x="18.02" y="0">o beans</tspan></text><text class="cls-1" transform="translate(0.18 363.61)">C<tspan class="cls-18" x="6.38" y="0">r</tspan><tspan x="9.71" y="0">anberry beans</tspan></text><text class="cls-3" transform="translate(126.75 44.29)">1<tspan class="cls-23" x="5.64" y="0">2</tspan><tspan class="cls-9" x="11.15" y="0">7</tspan></text><text class="cls-3" transform="translate(126.01 135.79)">194</text><text class="cls-3" transform="translate(126.07 89.2)">1<tspan class="cls-24" x="5.64" y="0">4</tspan><tspan x="11.19" y="0">9</tspan></text><text class="cls-3" transform="translate(126.2 180.71)">134</text><text class="cls-3" transform="translate(249.79 44.29)">10</text><text class="cls-3" transform="translate(250.03 135.79)">14</text><text class="cls-3" transform="translate(247.51 89.2)">8.5</text><text class="cls-3" transform="translate(244.39 180.71)">22.5</text><text class="cls-3" transform="translate(398.33 44.29)">485</text><text class="cls-3" transform="translate(398.46 135.79)">586</text><text class="cls-3" transform="translate(398.1 89.2)">443</text><text class="cls-25" transform="translate(398.66 180.7)">23<tspan class="cls-26" x="11.24" y="0">9</tspan></text><text class="cls-3" transform="translate(191.51 44.29)">6</text><text class="cls-3" transform="translate(191.51 135.79)">9</text><text class="cls-3" transform="translate(191.6 89.2)">8</text><text class="cls-3" transform="translate(191.77 180.7)">2</text><text class="cls-3" transform="translate(306.25 44.28)">130</text><text class="cls-3" transform="translate(308.04 135.79)">60</text><text class="cls-3" transform="translate(308.6 89.2)">88</text><text class="cls-3" transform="translate(307.9 180.7)">40</text><text class="cls-3" transform="translate(464.76 44.28)">0</text><text class="cls-3" transform="translate(463.16 135.79)">16</text><text class="cls-3" transform="translate(458.45 89.2)">16.5</text><text class="cls-3" transform="translate(465.32 180.7)">3</text><text class="cls-3" transform="translate(161.75 44.28)">11</text><text class="cls-3" transform="translate(160.44 135.79)">17</text><text class="cls-3" transform="translate(160.03 89.2)">14</text><text class="cls-3" transform="translate(162.41 180.7)">7</text><text class="cls-3" transform="translate(282.46 44.28)">4</text><text class="cls-3" transform="translate(278.07 135.78)">3.5</text><text class="cls-3" transform="translate(282.79 89.2)">5</text><text class="cls-3" transform="translate(282.59 180.7)">6</text><text class="cls-3" transform="translate(429.48 44.28)">100</text><text class="cls-3" transform="translate(432.39 135.78)">88</text><text class="cls-3" transform="translate(432.07 89.19)">46</text><text class="cls-3" transform="translate(431.8 180.7)">1<tspan class="cls-27" x="5.64" y="0">4</tspan><tspan x="11.08" y="0">1</tspan></text><text class="cls-3" transform="translate(216.99 44.28)"><tspan class="cls-28">0</tspan><tspan x="5.42" y="0">.5</tspan></text><text class="cls-3" transform="translate(223.56 135.78)">1</text><text class="cls-3" transform="translate(223.56 89.19)">1</text><text class="cls-3" transform="translate(217.06 180.7)"><tspan class="cls-28">0</tspan><tspan x="5.42" y="0">.2</tspan></text><text class="cls-3" transform="translate(371.63 44.28)">54</text><text class="cls-3" transform="translate(371.67 135.78)">98</text><text class="cls-3" transform="translate(372.19 89.19)"><tspan class="cls-29">7</tspan><tspan x="4.71" y="0">4</tspan></text><text class="cls-3" transform="translate(371.79 180.7)"><tspan class="cls-30">3</tspan><tspan x="5.6" y="0">9</tspan></text><text class="cls-3" transform="translate(342.69 44.28)">2</text><text class="cls-3" transform="translate(339.3 135.78)">1.5</text><text class="cls-3" transform="translate(337.58 89.19)">4.5</text><text class="cls-3" transform="translate(342.69 180.69)">2</text><text class="cls-31" transform="translate(492.29 44.27)">0<tspan class="cls-32" x="5.42" y="0">.</tspan><tspan class="cls-26" x="7.15" y="0">1</tspan></text><text class="cls-3" transform="translate(490.61 135.78)"><tspan class="cls-33">0</tspan><tspan x="5.42" y="0">.3</tspan></text><text class="cls-3" transform="translate(490.69 89.19)"><tspan class="cls-33">0</tspan><tspan x="5.42" y="0">.2</tspan></text><text class="cls-31" transform="translate(486.79 180.69)">0<tspan class="cls-34" x="5.42" y="0">.</tspan><tspan class="cls-26" x="7.49" y="0">05</tspan></text><text class="cls-3" transform="translate(125.64 410.47)">104</text><text class="cls-3" transform="translate(126.76 501.97)">1<tspan class="cls-23" x="5.64" y="0">2</tspan><tspan class="cls-9" x="11.15" y="0">7</tspan></text><text class="cls-3" transform="translate(128 455.38)">112</text><text class="cls-3" transform="translate(126.67 546.89)">122</text><text class="cls-3" transform="translate(245.54 410.47)">18.5</text><text class="cls-3" transform="translate(244.31 501.97)">23.5</text><text class="cls-3" transform="translate(248.46 455.38)">20</text><text class="cls-3" transform="translate(244.39 546.89)">22.5</text><text class="cls-3" transform="translate(398.24 410.47)">346</text><text class="cls-25" transform="translate(398.46 501.97)">35<tspan class="cls-26" x="11.24" y="0">4</tspan></text><text class="cls-3" transform="translate(399.03 455.38)"><tspan class="cls-30">3</tspan><tspan class="cls-35" x="5.6" y="0">5</tspan><tspan x="10.91" y="0">7</tspan></text><text class="cls-36" transform="translate(399.08 546.89)">37<tspan class="cls-26" x="10.82" y="0">3</tspan></text><text class="cls-3" transform="translate(186.21 410.47)"><tspan class="cls-28">0</tspan><tspan x="5.42" y="0">.4</tspan></text><text class="cls-3" transform="translate(186.53 501.97)"><tspan class="cls-28">0</tspan><tspan x="5.42" y="0">.5</tspan></text><text class="cls-3" transform="translate(186.21 455.38)"><tspan class="cls-28">0</tspan><tspan x="5.42" y="0">.4</tspan></text><text class="cls-3" transform="translate(186.53 546.89)"><tspan class="cls-28">0</tspan><tspan x="5.42" y="0">.5</tspan></text><text class="cls-3" transform="translate(308.04 410.47)">60</text><text class="cls-3" transform="translate(308.65 501.97)"><tspan class="cls-37">6</tspan><tspan x="5.54" y="0">3</tspan></text><text class="cls-3" transform="translate(308.87 455.38)">25</text><text class="cls-3" transform="translate(308.62 546.89)"><tspan class="cls-30">3</tspan><tspan x="5.6" y="0">9</tspan></text><text class="cls-3" transform="translate(464.76 410.47)">0</text><text class="cls-3" transform="translate(460.16 501.97)"><tspan class="cls-33">0</tspan><tspan x="5.42" y="0">.5</tspan></text><text class="cls-3" transform="translate(465.41 455.38)">7</text><text class="cls-3" transform="translate(465.32 546.89)">3</text><text class="cls-3" transform="translate(162.41 410.47)">7</text><text class="cls-3" transform="translate(158.25 501.97)"><tspan class="cls-38">7</tspan><tspan x="4.54" y="0">.5</tspan></text><text class="cls-3" transform="translate(158.25 455.38)"><tspan class="cls-38">7</tspan><tspan x="4.54" y="0">.5</tspan></text><text class="cls-3" transform="translate(158.25 546.89)"><tspan class="cls-38">7</tspan><tspan x="4.54" y="0">.5</tspan></text><text class="cls-3" transform="translate(282.59 410.47)">6</text><text class="cls-3" transform="translate(277.93 501.99)"><tspan class="cls-37">9</tspan><tspan x="5.54" y="0">.5</tspan></text><text class="cls-3" transform="translate(277.88 455.4)">6.5</text><text class="cls-3" transform="translate(278.71 546.9)"><tspan class="cls-39">7</tspan><tspan x="4.54" y="0">.5</tspan></text><text class="cls-3" transform="translate(431.82 410.48)">90</text><text class="cls-3" transform="translate(430.84 501.99)">1<tspan class="cls-40" x="5.64" y="0">2</tspan><tspan class="cls-26" x="11.15" y="0">7</tspan></text><text class="cls-3" transform="translate(432.01 455.4)">115</text><text class="cls-3" transform="translate(430.58 546.9)">1<tspan class="cls-41" x="5.64" y="0">4</tspan><tspan x="10.88" y="0">7</tspan></text><text class="cls-42" transform="translate(218.66 410.48)">0<tspan class="cls-32" x="5.42" y="0">.</tspan><tspan class="cls-9" x="7.15" y="0">1</tspan></text><text class="cls-3" transform="translate(221.59 501.99)">0</text><text class="cls-3" transform="translate(221.59 455.4)">0</text><text class="cls-42" transform="translate(218.66 546.9)">0<tspan class="cls-32" x="5.42" y="0">.</tspan><tspan class="cls-9" x="7.15" y="0">1</tspan></text><text class="cls-3" transform="translate(371.31 410.48)">44</text><text class="cls-3" transform="translate(371.53 501.99)">48</text><text class="cls-3" transform="translate(371.07 455.4)">40</text><text class="cls-3" transform="translate(371.63 546.9)">43</text><text class="cls-3" transform="translate(342.69 410.48)">2</text><text class="cls-3" transform="translate(342.69 501.99)">2</text><text class="cls-3" transform="translate(337.98 455.4)">2.5</text><text class="cls-3" transform="translate(342.69 546.9)">2</text><text class="cls-31" transform="translate(486.79 410.48)">0<tspan class="cls-34" x="5.42" y="0">.</tspan><tspan class="cls-26" x="7.49" y="0">05</tspan></text><text class="cls-31" transform="translate(486.6 501.99)">0<tspan class="cls-34" x="5.42" y="0">.</tspan><tspan class="cls-26" x="7.49" y="0">06</tspan></text><text class="cls-31" transform="translate(486.79 455.4)">0<tspan class="cls-34" x="5.42" y="0">.</tspan><tspan class="cls-26" x="7.49" y="0">05</tspan></text><text class="cls-31" transform="translate(486.79 546.9)">0<tspan class="cls-34" x="5.42" y="0">.</tspan><tspan class="cls-26" x="7.49" y="0">05</tspan></text><text class="cls-3" transform="translate(127.6 228.68)">114</text><text class="cls-3" transform="translate(126.5 320.18)">1<tspan class="cls-43" x="5.64" y="0">4</tspan><tspan class="cls-9" x="10.88" y="0">7</tspan></text><text class="cls-3" transform="translate(127.73 273.59)">119</text><text class="cls-3" transform="translate(126.03 365.1)">120</text><text class="cls-3" transform="translate(248.46 228.68)">20</text><text class="cls-3" transform="translate(244.22 320.18)">28.5</text><text class="cls-44" transform="translate(249.18 273.59)">2<tspan class="cls-26" x="5.52" y="0">7</tspan></text><text class="cls-3" transform="translate(245.71 365.1)">21.5</text><text class="cls-3" transform="translate(398.18 228.68)">305</text><text class="cls-3" transform="translate(400.13 320.18)"><tspan class="cls-45">6</tspan><tspan x="5.46" y="0">12</tspan></text><text class="cls-3" transform="translate(398.41 273.59)">284</text><text class="cls-3" transform="translate(398.5 365.1)">342</text><text class="cls-3" transform="translate(186.53 228.68)"><tspan class="cls-28">0</tspan><tspan x="5.42" y="0">.5</tspan></text><text class="cls-42" transform="translate(188.2 320.18)">0<tspan class="cls-32" x="5.42" y="0">.</tspan><tspan class="cls-9" x="7.15" y="0">1</tspan></text><text class="cls-3" transform="translate(186.53 273.59)"><tspan class="cls-28">0</tspan><tspan x="5.42" y="0">.5</tspan></text><text class="cls-3" transform="translate(186.21 365.09)"><tspan class="cls-28">0</tspan><tspan x="5.42" y="0">.4</tspan></text><text class="cls-3" transform="translate(308.86 228.68)">23</text><text class="cls-3" transform="translate(308.86 320.18)">32</text><text class="cls-3" transform="translate(308.46 273.59)">43</text><text class="cls-3" transform="translate(308.14 365.09)">44</text><text class="cls-3" transform="translate(464.76 228.68)">0</text><text class="cls-3" transform="translate(464.76 320.18)">0</text><text class="cls-3" transform="translate(466.72 273.59)">1</text><text class="cls-3" transform="translate(464.76 365.09)">0</text><text class="cls-3" transform="translate(162.23 228.68)">8</text><text class="cls-3" transform="translate(157.51 320.18)">8.5</text><text class="cls-3" transform="translate(162.13 273.59)">6</text><text class="cls-3" transform="translate(162.23 365.09)">8</text><text class="cls-3" transform="translate(278.71 228.68)"><tspan class="cls-39">7</tspan><tspan x="4.54" y="0">.5</tspan></text><text class="cls-3" transform="translate(277.97 320.18)">8.5</text><text class="cls-3" transform="translate(282.79 273.59)">5</text><text class="cls-3" transform="translate(282.59 365.09)">9</text><text class="cls-3" transform="translate(430.59 228.68)">128</text><text class="cls-25" transform="translate(430.44 320.18)">13<tspan class="cls-26" x="11.24" y="0">9</tspan></text><text class="cls-3" transform="translate(433.98 273.59)">15</text><text class="cls-3" transform="translate(430.51 365.09)">183</text><text class="cls-42" transform="translate(218.66 228.68)">0<tspan class="cls-32" x="5.42" y="0">.</tspan><tspan class="cls-9" x="7.15" y="0">1</tspan></text><text class="cls-3" transform="translate(221.59 320.18)">0</text><text class="cls-42" transform="translate(218.66 273.59)">0<tspan class="cls-32" x="5.42" y="0">.</tspan><tspan class="cls-9" x="7.15" y="0">1</tspan></text><text class="cls-42" transform="translate(218.66 365.09)">0<tspan class="cls-32" x="5.42" y="0">.</tspan><tspan class="cls-9" x="7.15" y="0">1</tspan></text><text class="cls-3" transform="translate(371.2 228.68)">60</text><text class="cls-3" transform="translate(371.2 320.18)">60</text><text class="cls-3" transform="translate(371.63 273.59)">34</text><text class="cls-3" transform="translate(371.31 365.09)">44</text><text class="cls-3" transform="translate(342.69 228.68)">2</text><text class="cls-3" transform="translate(342.69 320.18)">2</text><text class="cls-3" transform="translate(339.3 273.59)">1.5</text><text class="cls-3" transform="translate(342.69 365.09)">2</text><text class="cls-31" transform="translate(486.79 228.68)">0<tspan class="cls-34" x="5.42" y="0">.</tspan><tspan class="cls-26" x="7.49" y="0">05</tspan></text><text class="cls-3" transform="translate(487.04 320.18)"><tspan class="cls-33">0</tspan><tspan class="cls-34" x="5.42" y="0">.</tspan><tspan class="cls-46" x="7.49" y="0">0</tspan><tspan x="12.81" y="0">7</tspan></text><text class="cls-31" transform="translate(486.79 273.59)">0<tspan class="cls-34" x="5.42" y="0">.</tspan><tspan class="cls-26" x="7.49" y="0">05</tspan></text><text class="cls-31" transform="translate(486.6 365.09)">0<tspan class="cls-34" x="5.42" y="0">.</tspan><tspan class="cls-26" x="7.49" y="0">06</tspan></text><text class="cls-3" transform="translate(126.42 594.87)">1<tspan class="cls-47" x="5.64" y="0">2</tspan><tspan class="cls-9" x="11.01" y="0">4</tspan></text><text class="cls-3" transform="translate(125.77 686.37)">106</text><text class="cls-3" transform="translate(125.86 639.78)">108</text><text class="cls-3" transform="translate(244.39 594.87)">22.5</text><text class="cls-3" transform="translate(250.16 686.37)">19</text><text class="cls-3" transform="translate(245.51 639.78)">1<tspan class="cls-37" x="5.64" y="0">9</tspan><tspan class="cls-26" x="11.19" y="0">.5</tspan></text><text class="cls-3" transform="translate(398.32 594.87)">5<tspan class="cls-37" x="5.64" y="0">0</tspan><tspan x="11.19" y="0">2</tspan></text><text class="cls-3" transform="translate(398.5 686.37)">2<tspan class="cls-37" x="5.64" y="0">6</tspan><tspan x="11.19" y="0">9</tspan></text><text class="cls-3" transform="translate(398.68 639.78)"><tspan class="cls-43">4</tspan><tspan class="cls-48" x="5.24" y="0">7</tspan><tspan x="10.77" y="0">8</tspan></text><text class="cls-3" transform="translate(186.53 594.87)"><tspan class="cls-28">0</tspan><tspan x="5.42" y="0">.3</tspan></text><text class="cls-3" transform="translate(186.21 686.37)"><tspan class="cls-28">0</tspan><tspan x="5.42" y="0">.4</tspan></text><text class="cls-3" transform="translate(186.53 639.78)"><tspan class="cls-28">0</tspan><tspan x="5.42" y="0">.3</tspan></text><text class="cls-3" transform="translate(310.09 594.87)">81</text><text class="cls-44" transform="translate(309.02 686.37)">2<tspan class="cls-26" x="5.52" y="0">7</tspan></text><text class="cls-3" transform="translate(310 639.78)">16</text><text class="cls-3" transform="translate(465.32 594.87)">3</text><text class="cls-3" transform="translate(460.68 686.37)">2.5</text><text class="cls-3" transform="translate(465.4 639.78)">2</text><text class="cls-3" transform="translate(157.51 594.87)">8.5</text><text class="cls-3" transform="translate(162.41 686.37)">7</text><text class="cls-3" transform="translate(162.41 639.78)">7</text><text class="cls-3" transform="translate(278.07 594.87)">5.5</text><text class="cls-3" transform="translate(278.71 686.37)"><tspan class="cls-39">7</tspan><tspan x="4.54" y="0">.5</tspan></text><text class="cls-3" transform="translate(277.88 639.78)">6.5</text><text class="cls-3" transform="translate(432.83 594.87)"><tspan class="cls-49">7</tspan><tspan x="5.49" y="0">2</tspan></text><text class="cls-3" transform="translate(431.92 686.37)">1<tspan class="cls-45" x="5.64" y="0">6</tspan><tspan x="11.1" y="0">1</tspan></text><text class="cls-3" transform="translate(432.63 639.79)"><tspan class="cls-37">7</tspan><tspan x="5.54" y="0">8</tspan></text><text class="cls-42" transform="translate(218.66 594.87)">0<tspan class="cls-32" x="5.42" y="0">.</tspan><tspan class="cls-9" x="7.15" y="0">1</tspan></text><text class="cls-42" transform="translate(218.66 686.37)">0<tspan class="cls-32" x="5.42" y="0">.</tspan><tspan class="cls-9" x="7.15" y="0">1</tspan></text><text class="cls-42" transform="translate(218.66 639.79)">0<tspan class="cls-32" x="5.42" y="0">.</tspan><tspan class="cls-9" x="7.15" y="0">1</tspan></text><text class="cls-3" transform="translate(371.76 594.87)">56</text><text class="cls-3" transform="translate(371.53 686.37)">48</text><text class="cls-3" transform="translate(371.07 639.79)">40</text><text class="cls-3" transform="translate(342.61 594.87)">3</text><text class="cls-3" transform="translate(339.3 686.37)">1.5</text><text class="cls-3" transform="translate(342.69 639.79)">2</text><text class="cls-31" transform="translate(486.47 594.87)">0<tspan class="cls-34" x="5.42" y="0">.</tspan><tspan class="cls-26" x="7.49" y="0">04</tspan></text><text class="cls-31" transform="translate(486.6 686.37)">0<tspan class="cls-34" x="5.42" y="0">.</tspan><tspan class="cls-26" x="7.49" y="0">06</tspan></text><text class="cls-31" transform="translate(486.79 639.79)">0<tspan class="cls-34" x="5.42" y="0">.</tspan><tspan class="cls-26" x="7.49" y="0">05</tspan></text><text class="cls-50" transform="translate(122.62 11.63)">Calorie<tspan class="cls-51" x="17.45" y="0">s</tspan><tspan x="27.66" y="0">P</tspan><tspan class="cls-12" x="30.85" y="0">r</tspan><tspan x="32.69" y="0">o</tspan><tspan class="cls-52" x="35.98" y="0">t</tspan><tspan x="37.88" y="0">ein</tspan></text><text class="cls-50" transform="translate(163.04 17.63)">g</text><text class="cls-50" transform="translate(182.52 11.63)"><tspan class="cls-53">T</tspan><tspan x="2.23" y="0">otal </tspan><tspan class="cls-54" x="13.09" y="0">F</tspan><tspan class="cls-55" x="15.86" y="0">a</tspan><tspan x="18.73" y="0">t</tspan></text><text class="cls-50" transform="translate(193.49 17.63)">g</text><text class="cls-50" transform="translate(215.36 11.63)"><tspan class="cls-8">Sat</tspan><tspan x="7.82" y="0"> </tspan><tspan class="cls-54" x="9.09" y="0">F</tspan><tspan class="cls-56" x="11.87" y="0">a</tspan><tspan x="14.74" y="0">t</tspan></text><text class="cls-50" transform="translate(223.95 17.63)">g</text><text class="cls-50" transform="translate(249.16 5.02)"><tspan class="cls-57">T</tspan><tspan x="2.23" y="0">otal </tspan></text><text class="cls-50" transform="translate(247.75 11.02)">Carbs </text><text class="cls-50" transform="translate(254.41 17.02)">g</text><text class="cls-50" transform="translate(279.11 11.63)">Fiber</text><text class="cls-50" transform="translate(284.86 17.63)">g</text><text class="cls-50" transform="translate(313.36 11.63)">Ca</text><text class="cls-50" transform="translate(312.46 17.63)">mg</text><text class="cls-50" transform="translate(341.96 11.63)">I<tspan class="cls-12" x="1.43" y="0">r</tspan><tspan x="3.27" y="0">on</tspan></text><text class="cls-50" transform="translate(342.92 17.63)">mg</text><text class="cls-50" transform="translate(373.63 11.63)">Mg</text><text class="cls-50" transform="translate(373.38 17.63)">mg</text><text class="cls-50" transform="translate(393.85 11.63)">Pota<tspan class="cls-58" x="11.36" y="0">s</tspan><tspan x="13.69" y="0">sium </tspan></text><text class="cls-50" transform="translate(404.33 17.63)">mg</text><text class="cls-50" transform="translate(429.82 11.63)"><tspan class="cls-59">F</tspan><tspan class="cls-8" x="2.84" y="0">ola</tspan><tspan class="cls-59" x="10.42" y="0">t</tspan><tspan x="12.32" y="0">e</tspan></text><text class="cls-50" transform="translate(432.61 17.63)">m<tspan class="cls-60" x="5" y="0">c</tspan><tspan class="cls-61" x="7.63" y="0">g</tspan></text><text class="cls-62" transform="translate(462.34 11.63)">V<tspan class="cls-63" x="3.23" y="0">it K</tspan></text><text class="cls-50" transform="translate(463.06 17.63)">m<tspan class="cls-64" x="5" y="0">c</tspan><tspan class="cls-61" x="7.64" y="0">g</tspan></text><text class="cls-50" transform="translate(485.19 12.46)">Riboﬂ</text><text class="cls-50" transform="translate(500.86 12.46)"><tspan class="cls-65"> </tspan><tspan class="cls-66" x="1.36" y="0">a</tspan><tspan x="4.14" y="0">vin</tspan></text><text class="cls-50" transform="translate(495.2 18.46)">mg</text></svg>